<svg width="64" height="64" viewBox="0 0 64 64" fill="none" xmlns="http://www.w3.org/2000/svg">
  <rect width="64" height="64" rx="16" fill="#050505"/>
  <g transform="translate(6 16.4) scale(.35135) translate(-240 0)">
    <path d="M365.762 12.5172C353.156 5.1756 336.806 0.833095 319.261 0.114551C318.168 0.0520684 317.067 0 315.957 0C315.796 0 315.635 0 315.474 0.0104137C314.983 0.0104137 314.491 0 314 0C294.481 0 276.098 4.44664 262.238 12.5172C247.896 20.869 240 32.1887 240 44.3935C240 56.5984 247.896 67.9284 262.238 76.2698C276.098 84.3404 294.481 88.7871 314 88.7871C314.491 88.7871 314.983 88.7871 315.474 88.7766C315.635 88.7766 315.796 88.7871 315.957 88.7871C317.067 88.7871 318.168 88.7454 319.261 88.6725C336.806 87.9435 353.156 83.6115 365.762 76.2698C380.104 67.918 388 56.5984 388 44.3935C388 32.1887 380.104 20.8586 365.762 12.5172ZM331.901 44.3935C331.901 65.45 324.81 83.2782 316.33 83.7989C316.143 83.7989 315.957 83.7989 315.762 83.8093C307.206 83.549 300.005 65.6062 300.005 44.3935C300.005 23.1809 307.206 5.2485 315.762 4.97774C315.948 4.97774 316.135 4.97774 316.33 4.98815C324.81 5.49842 331.901 23.3267 331.901 44.3935ZM295.964 44.3935C295.964 44.5601 295.964 44.7268 295.964 44.8934C296.057 64.8981 271.777 66.179 270.735 46.2159C270.701 45.6119 270.684 45.0079 270.684 44.4039C270.684 25.701 285.705 10.0075 305.791 5.97745C299.861 13.6003 295.955 27.7941 295.955 44.4039L295.964 44.3935ZM335.942 44.3935C335.942 44.2269 335.942 44.0603 335.942 43.8937C335.848 23.889 360.128 22.6081 361.17 42.5711C361.204 43.1751 361.221 43.7791 361.221 44.3831C361.221 63.0861 346.201 78.7795 326.114 82.8096C332.045 75.1868 335.95 60.9929 335.95 44.3831L335.942 44.3935ZM263.966 71.7815C251.115 64.3045 244.041 54.5781 244.041 44.3935C244.041 34.2089 251.123 24.4826 263.966 17.0055C268.88 14.1522 274.386 11.7675 280.342 9.893C281.714 9.45562 282.553 11.6737 281.401 12.6943L281.342 12.7463C271.87 21.1398 266.652 32.3866 266.652 44.3935C266.652 56.4005 271.87 67.6473 281.342 76.0407L281.401 76.0928C282.553 77.1133 281.723 79.321 280.342 78.8941C274.395 77.0196 268.88 74.6349 263.966 71.7815ZM364.025 71.7815C360.103 74.0621 355.791 76.0511 351.182 77.7069C350.369 77.9985 349.844 76.6864 350.53 76.0824L350.572 76.0511C360.044 67.6577 365.262 56.4109 365.262 44.4039C365.262 32.397 360.044 21.1502 350.572 12.7568L350.53 12.7255C349.844 12.1215 350.369 10.8094 351.182 11.101C355.791 12.7568 360.103 14.7458 364.025 17.0264C376.877 24.5034 383.951 34.2298 383.951 44.4144C383.951 54.5989 376.877 64.3253 364.025 71.8023V71.7815Z" fill="#f9fafb"/>
  </g>
</svg>
